# xmcd
#
# Track frame offsets:
#   150
#   16374
#   31233
#   46594
#   64156
#   76452
#   88831
#   104498
#   117351
#   129619
#   144422
#   157275
#   175756
#   193478
#   207223
#   222834
#   237582
#   255840
#   271340
#   290769
#
# Disc length: 4067 seconds
#
# Revision: 0
# Processed by: cddbd v1.5.1PL0 Copyright (c) Steve Scherf et al.
# Submitted via: uFREEDB ActiveX Control 1.5
#
DISCID=2c0fe114
DTITLE=Bezerra da Silva - as 20 mais
DYEAR=1900
DGENRE=Alternative
TTITLE0=piranha
TTITLE1=dedo duro
TTITLE2=malandro nao vacila
TTITLE3=a giria é cultura do povo
TTITLE4=ja matei meus desejos
TTITLE5=madalena
TTITLE6=medo de virar galeto
TTITLE7=papo de malandro
TTITLE8=malandro é malandro e mané é mané
TTITLE9=tua batata ta assando
TTITLE10=o juramento jurou
TTITLE11=transação do malandro
TTITLE12=com dinheiro tudo bem
TTITLE13=o galo cantou primeiro
TTITLE14=saudações as favelas
TTITLE15=saudações as favelas
TTITLE16=vou contar até tres
TTITLE17=o rei do côco
TTITLE18=Meu bom Juiz
TTITLE19=o bicho é o bicho
EXTD=Bezerra
EXTT0=
EXTT1=
EXTT2=
EXTT3=
EXTT4=
EXTT5=
EXTT6=
EXTT7=
EXTT8=
EXTT9=
EXTT10=
EXTT11=
EXTT12=
EXTT13=
EXTT14=
EXTT15=
EXTT16=
EXTT17=
EXTT18=
EXTT19=
PLAYORDER=
